<svg width="210" height="210" viewBox="0 0 210 210" fill="none" xmlns="http://www.w3.org/2000/svg">
<path d="M205 105C205 160.228 160.228 205 105 205C49.7715 205 5 160.228 5 105C5 49.7715 49.7715 5 105 5C160.228 5 205 49.7715 205 105ZM25 105C25 149.183 60.8172 185 105 185C149.183 185 185 149.183 185 105C185 60.8172 149.183 25 105 25C60.8172 25 25 60.8172 25 105Z" fill="black"/>
<path d="M103.409 29.0012C97.2817 29.0297 91.4307 29.5519 86.2824 30.4623C71.1162 33.14 68.3626 38.7445 68.3626 49.0804V62.7308H104.202V67.281H68.3626H54.9123C44.4963 67.281 35.3758 73.5376 32.523 85.4399C29.2324 99.0826 29.0864 107.596 32.523 121.841C35.0706 132.445 41.1547 140 51.5706 140H63.8931V123.636C63.8931 111.814 74.1282 101.386 86.2824 101.386H122.08C132.045 101.386 140 93.1868 140 83.1857V49.0804C140 39.3738 131.806 32.0823 122.08 30.4623C115.924 29.4381 109.535 28.9728 103.409 29.0012ZM84.0268 39.98C87.7287 39.98 90.7519 43.0506 90.7519 46.8262C90.7519 50.5883 87.7287 53.6305 84.0268 53.6305C80.3115 53.6305 77.3016 50.5883 77.3016 46.8262C77.3016 43.0506 80.3115 39.98 84.0268 39.98Z" fill="url(#paint0_linear_37_417)"/>
<path d="M145.643 68V84.068C145.643 96.5254 135.108 107.01 123.096 107.01H87.046C77.1713 107.01 69 115.483 69 125.398V159.854C69 169.66 77.5054 175.428 87.046 178.241C98.4706 181.609 109.426 182.218 123.096 178.241C132.182 175.604 141.142 170.295 141.142 159.854V146.063H105.092V141.466H141.142H159.188C169.677 141.466 173.586 134.131 177.234 123.121C181.002 111.786 180.841 100.886 177.234 86.3454C174.641 75.8764 169.69 68 159.188 68H145.643ZM125.367 155.257C129.109 155.257 132.14 158.33 132.14 162.131C132.14 165.945 129.109 169.047 125.367 169.047C121.639 169.047 118.595 165.945 118.595 162.131C118.595 158.33 121.639 155.257 125.367 155.257Z" fill="url(#paint1_linear_37_417)"/>
<path d="M53.3482 87.5615C53.3482 83.6874 52.2733 81.6985 50.1236 81.5896C49.2683 81.5481 48.4331 81.6881 47.6207 82.0123C46.9722 82.2508 46.5357 82.4868 46.3061 82.7254V91.9724C47.6812 92.8593 48.9024 93.2716 49.9672 93.2067C52.2204 93.0537 53.3482 91.1737 53.3482 87.5615ZM56 87.7223C56 89.6905 55.5509 91.3241 54.6476 92.6233C53.6409 94.0936 52.2456 94.8508 50.4617 94.8923C49.1169 94.9364 47.7317 94.5033 46.3061 93.5957V102L44 101.155V82.4998C44.3785 82.0226 44.8654 81.6129 45.4558 81.2654C46.8284 80.4434 48.4962 80.0207 50.4592 80L50.492 80.0337C52.286 80.0104 53.6686 80.7676 54.64 82.3027C55.5458 83.7107 56 85.5156 56 87.7223Z" fill="black"/>
<path d="M71 93.277C71 95.9246 70.7336 97.7581 70.2007 98.7776C69.6652 99.7971 68.6465 100.611 67.1419 101.217C65.9221 101.696 64.603 101.956 63.1872 102L62.7928 100.502C64.232 100.307 65.2455 100.112 65.8333 99.9168C66.9904 99.5267 67.7845 98.9285 68.2207 98.1274C68.5707 97.4746 68.7431 96.2289 68.7431 94.3849V93.7659C67.1106 94.5046 65.3997 94.8713 63.6104 94.8713C62.4349 94.8713 61.3979 94.5046 60.5046 93.7659C59.5015 92.9623 59 91.9428 59 90.7074V80.814L61.3875 80V89.9584C61.3875 91.0221 61.7323 91.8414 62.4219 92.4161C63.1115 92.9909 64.0048 93.2666 65.0993 93.2458C66.1937 93.2224 67.3666 92.801 68.6125 91.9766V80.3589H71V93.277Z" fill="black"/>
<path d="M80 94.965C79.7027 94.9892 79.4299 95 79.1789 95C77.7685 95 76.6691 94.6685 75.8835 94.0027C75.1005 93.3369 74.7077 92.4178 74.7077 91.2453V81.5418H73V79.9919H74.7077V75.876L77.1984 75V79.9919H80V81.5418H77.1984V91.1779C77.1984 92.1024 77.4493 92.7574 77.9513 93.1402C78.3823 93.4555 79.067 93.6361 80 93.6819V94.965Z" fill="black"/>
<path d="M95 94H92.5386V85.1001C92.5386 84.1945 92.3124 83.415 91.8627 82.7641C91.3429 82.0275 90.6212 81.6592 89.6948 81.6592C88.5664 81.6592 87.1553 82.2167 85.4614 83.3317V94H83V72.7265L85.4614 72V81.6895C87.0341 80.6174 88.7522 80.08 90.6185 80.08C91.9219 80.08 92.9776 80.4912 93.7855 81.3111C94.5961 82.1309 95 83.1526 95 84.3736V94Z" fill="black"/>
<path d="M107.208 87.2553C107.208 85.7529 106.904 84.5123 106.298 83.5308C105.579 82.3347 104.46 81.7039 102.948 81.6385C100.153 81.7903 98.7587 83.6695 98.7587 87.271C98.7587 88.9225 99.0488 90.3019 99.6346 91.409C100.382 92.8198 101.503 93.516 102.999 93.4924C105.805 93.4715 107.208 91.3933 107.208 87.2553ZM110 87.271C110 89.4094 109.417 91.1891 108.254 92.6104C106.974 94.2017 105.205 95 102.948 95C100.711 95 98.9679 94.2017 97.7099 92.6104C96.569 91.1891 96 89.4094 96 87.271C96 85.2609 96.6165 83.5701 97.8494 82.1933C99.152 80.7329 100.865 80 102.982 80C105.099 80 106.823 80.7329 108.151 82.1933C109.384 83.5701 110 85.2609 110 87.271Z" fill="black"/>
<path d="M123 94H120.518V84.7099C120.518 83.6906 120.184 82.8957 119.516 82.3225C118.848 81.7519 117.957 81.4753 116.847 81.4977C115.668 81.5176 114.547 81.8715 113.482 82.5568V94H111V82.2752C112.428 81.3208 113.743 80.6978 114.943 80.4062C116.075 80.1346 117.075 80 117.936 80C118.525 80 119.079 80.0523 119.6 80.157C120.575 80.3638 121.368 80.7476 121.979 81.3108C122.661 81.9338 123 82.6814 123 83.5561V94Z" fill="black"/>
<path d="M127.901 78H128.281V75.3195H129.182V75H127V75.3195H127.901V78ZM129.519 78H129.844V75.5519L130.549 77.9997H130.911L131.646 75.5602V78H132V75H131.531L130.728 77.5701L130.043 75H129.519V78Z" fill="black"/>
<defs>
<linearGradient id="paint0_linear_37_417" x1="30" y1="29" x2="112.598" y2="99.4297" gradientUnits="userSpaceOnUse">
<stop stop-color="#5A9FD4"/>
<stop offset="1" stop-color="#306998"/>
</linearGradient>
<linearGradient id="paint1_linear_37_417" x1="124.5" y1="160.971" x2="94.5407" y2="119.097" gradientUnits="userSpaceOnUse">
<stop stop-color="#FFD43B"/>
<stop offset="1" stop-color="#FFE873"/>
</linearGradient>
</defs>
</svg>
